<svg width="1766" height="343" viewBox="0 0 1766 343" fill="none" xmlns="http://www.w3.org/2000/svg">
<path fill-rule="evenodd" clip-rule="evenodd" d="M595.98 89.26L727.75 343.13H828L650.08 0.380005H541.88L475.97 127.35L526.1 223.91L595.98 89.26Z" fill="#008CFA"/>
<path fill-rule="evenodd" clip-rule="evenodd" d="M306.3 296.9L282.31 343.13H182.06L256.18 200.34L306.3 296.9ZM414.08 89.26L545.85 343.13H646.09L468.18 0.380005H359.98L294.07 127.35L344.19 223.91L414.08 89.26Z" fill="#0064BE"/>
<path fill-rule="evenodd" clip-rule="evenodd" d="M232.18 89.19L363.84 342.83H464.01L487.98 296.64L437.91 200.17L413.93 246.37L286.24 0.380005H178.13L0.380005 342.83H100.53L232.18 89.19Z" fill="#008CFA"/>
<path d="M1765.58 44.28L1662.61 236.38C1651.72 256.98 1638.4 272.6 1622.67 283.25C1606.93 293.9 1589.71 299.23 1571 299.23C1557.27 299.23 1542.59 296.15 1526.97 290L1543.66 238.16C1553.37 241 1561.65 242.42 1568.52 242.42C1575.38 242.42 1581.48 240.88 1586.8 237.81C1592.13 234.73 1597.04 229.88 1601.54 223.25L1504.96 44.29H1579.17L1637.05 164.31L1697.06 44.29H1765.58V44.28ZM1401.28 192.7L1369.32 113.16L1337.36 192.7H1401.28ZM1421.87 244.54H1316.77L1297.24 292.83H1225.51L1335.23 44.28H1404.47L1514.54 292.83H1441.4L1421.87 244.54ZM1132.48 292.84L1132.13 161.11L1068.21 268.34H1036.97L973.06 163.95V292.84H908.44V44.28H966.31L1053.66 187.73L1138.88 44.28H1196.76L1197.47 292.83H1132.48V292.84Z" fill="black"/>
</svg>
