<svg width="430" height="430" viewBox="0 0 430 430" fill="none" xmlns="http://www.w3.org/2000/svg">
<path d="M211.749 84.0784L187.901 165.245L82.5302 150.423L128.205 205.713L93.7446 282.644L105.767 294.662L179.086 279.836L215 351.956L236.594 307.485L255.213 273.025L348.57 294.662L314.575 244.98L324.529 185.103L316.652 147.215L257.217 154.431L211.749 84.0784Z" fill="#0064BE"/>
<path d="M392.199 91.0055L225.165 141.526L235.343 185.106L397.949 137.221C406.643 134.659 410.741 124.713 406.372 116.771L392.199 91.0055Z" fill="#0064BE"/>
<path d="M194.657 185.1L233.822 17.4148C235.903 8.51821 229.148 0 220.006 0H192.112L151.855 172.166L194.657 185.1Z" fill="#0064BE"/>
<path fill-rule="evenodd" clip-rule="evenodd" d="M235.344 255.575L194.27 412.211C191.91 421.206 198.699 430 207.996 430H240.392L279.388 268.027L235.344 255.575Z" fill="#0064BE"/>
<path d="M235.347 255.575L393.7 300.342C402.73 302.896 406.837 313.35 401.965 321.365L385.917 347.776L225.122 299.229L235.347 255.575Z" fill="#0064BE"/>
<path d="M28.036 321.365L44.0834 347.776L206.118 299.297L194.655 255.575L36.3048 300.342C27.2749 302.896 23.1642 313.35 28.036 321.365Z" fill="#0064BE"/>
<path fill-rule="evenodd" clip-rule="evenodd" d="M194.657 255.575L240.392 430H200.836C194.257 430 188.538 425.476 187.025 419.069L151.494 268.621L194.657 255.575Z" fill="#008CFA"/>
<path fill-rule="evenodd" clip-rule="evenodd" d="M37.8013 91.0055L204.865 141.401L194.657 185.106L32.0522 137.217C23.3576 134.654 19.2597 124.709 23.6285 116.767L37.8013 91.0055Z" fill="#0064BE"/>
<path d="M192.113 0H226.651C233.239 0 238.962 4.53215 240.467 10.9477L278.299 172.123L235.35 185.1L192.113 0Z" fill="#008CFA"/>
<path d="M409.569 122.581L392.197 91.0055L283.502 193.991C268.315 208.383 268.117 232.511 283.072 247.144L385.915 347.781L405.682 315.252C409.164 309.52 408.158 302.136 403.273 297.544L321.037 220.251L406.842 139.772C411.568 135.334 412.69 128.261 409.569 122.581Z" fill="#008CFA"/>
<path d="M37.8012 91.0055L20.4293 122.581C17.3032 128.261 18.4255 135.334 23.1555 139.772L108.85 220.148L26.7073 297.54C21.8311 302.132 20.8335 309.511 24.3122 315.239L44.0835 347.781L146.926 247.144C161.881 232.511 161.684 208.383 146.496 193.991L37.8012 91.0055Z" fill="#008CFA"/>
<path d="M133.209 207.831V158.863H142.583L163.429 193.422H158.462L178.96 158.863H188.265L188.407 207.831H177.773L177.705 175.164H179.665L163.296 202.654H158.187L141.469 175.164H143.847V207.831H133.209Z" fill="white"/>
<path d="M193.577 207.831L215.404 158.863H226.597L248.493 207.831H236.599L218.689 164.599H223.165L205.187 207.831H193.577ZM204.49 197.339L207.5 188.735H232.686L235.764 197.339H204.49Z" fill="white"/>
<path d="M274.304 208.67C267.356 208.67 261.92 206.735 258.003 202.865C254.086 198.995 252.125 193.469 252.125 186.284V158.863H263.456V185.867C263.456 190.532 264.41 193.891 266.324 195.942C268.237 197.993 270.916 199.02 274.369 199.02C277.817 199.02 280.501 197.997 282.414 195.942C284.328 193.891 285.282 190.532 285.282 185.867V158.863H296.475V186.284C296.475 193.465 294.514 198.995 290.597 202.865C286.688 206.735 281.253 208.67 274.304 208.67Z" fill="white"/>
<path fill-rule="evenodd" clip-rule="evenodd" d="M296.103 281.636H133.905C128.917 281.636 124.875 277.594 124.875 272.606V231.459C124.875 226.471 128.917 222.429 133.905 222.429H296.103C301.091 222.429 305.133 226.471 305.133 231.459V272.606C305.133 277.594 301.087 281.636 296.103 281.636Z" fill="#F9423B"/>
<path d="M153.9 266.66L142.097 238.559H150.507L160.329 262.743H156.149L166.336 238.559H174.17L162.315 266.66H153.9Z" fill="white"/>
<path d="M190.669 267.077C187.465 267.077 184.653 266.449 182.232 265.198C179.812 263.942 177.941 262.231 176.617 260.055C175.292 257.879 174.63 255.398 174.63 252.612C174.63 249.791 175.284 247.292 176.591 245.117C177.898 242.941 179.683 241.234 181.944 240C184.206 238.766 186.765 238.146 189.62 238.146C192.372 238.146 194.853 238.731 197.063 239.896C199.273 241.062 201.023 242.734 202.313 244.91C203.599 247.086 204.244 249.688 204.244 252.719C204.244 253.033 204.227 253.39 204.192 253.79C204.158 254.19 204.124 254.564 204.089 254.912H181.265V250.161H199.806L196.672 251.571C196.672 250.109 196.375 248.836 195.786 247.757C195.193 246.678 194.376 245.835 193.331 245.224C192.286 244.614 191.069 244.313 189.676 244.313C188.282 244.313 187.057 244.618 185.995 245.224C184.933 245.835 184.107 246.686 183.514 247.783C182.92 248.879 182.628 250.178 182.628 251.674V252.93C182.628 254.461 182.968 255.811 183.647 256.976C184.327 258.141 185.285 259.031 186.519 259.638C187.754 260.248 189.211 260.554 190.88 260.554C192.376 260.554 193.692 260.326 194.823 259.874C195.954 259.423 196.99 258.743 197.932 257.836L202.266 262.536C200.976 263.998 199.359 265.12 197.407 265.903C195.459 266.685 193.21 267.077 190.669 267.077Z" fill="white"/>
<path d="M209.683 266.66V238.559H217.466V246.497L216.37 244.201C217.204 242.214 218.546 240.709 220.39 239.682C222.235 238.654 224.48 238.142 227.129 238.142V245.663C226.78 245.628 226.466 245.603 226.187 245.585C225.907 245.568 225.611 245.56 225.301 245.56C223.074 245.56 221.272 246.196 219.896 247.465C218.52 248.737 217.832 250.711 217.832 253.394V266.66H209.683Z" fill="white"/>
<path d="M241.645 267.077C239.241 267.077 236.937 266.789 234.726 266.217C232.516 265.64 230.766 264.918 229.476 264.049L232.194 258.202C233.479 259.001 235.006 259.655 236.765 260.158C238.523 260.661 240.256 260.915 241.963 260.915C243.842 260.915 245.175 260.687 245.958 260.235C246.74 259.784 247.132 259.156 247.132 258.356C247.132 257.694 246.826 257.2 246.216 256.869C245.605 256.537 244.797 256.284 243.786 256.112C242.776 255.94 241.671 255.763 240.471 255.591C239.271 255.419 238.059 255.183 236.842 254.886C235.621 254.59 234.507 254.147 233.501 253.553C232.49 252.96 231.682 252.16 231.071 251.15C230.461 250.139 230.155 248.836 230.155 247.232C230.155 245.456 230.667 243.891 231.695 242.532C232.723 241.174 234.21 240.103 236.163 239.32C238.11 238.538 240.445 238.146 243.163 238.146C245.076 238.146 247.029 238.357 249.011 238.774C250.993 239.191 252.649 239.802 253.973 240.602L251.255 246.394C249.897 245.594 248.529 245.044 247.153 244.747C245.777 244.45 244.444 244.304 243.159 244.304C241.348 244.304 240.024 244.549 239.19 245.035C238.356 245.521 237.934 246.149 237.934 246.914C237.934 247.611 238.239 248.131 238.85 248.479C239.461 248.828 240.269 249.107 241.28 249.313C242.29 249.524 243.395 249.705 244.595 249.864C245.794 250.019 247.007 250.255 248.224 250.569C249.441 250.883 250.546 251.326 251.539 251.902C252.533 252.478 253.341 253.261 253.969 254.254C254.597 255.247 254.91 256.546 254.91 258.146C254.91 259.887 254.39 261.427 253.345 262.768C252.3 264.11 250.795 265.163 248.826 265.929C246.861 266.694 244.466 267.077 241.645 267.077Z" fill="white"/>
<path d="M273.87 267.077C270.666 267.077 267.854 266.449 265.433 265.198C263.012 263.942 261.142 262.231 259.817 260.055C258.493 257.879 257.831 255.398 257.831 252.612C257.831 249.791 258.484 247.292 259.792 245.117C261.099 242.941 262.883 241.234 265.145 240C267.407 238.766 269.965 238.146 272.82 238.146C275.572 238.146 278.054 238.731 280.264 239.896C282.474 241.062 284.224 242.734 285.514 244.91C286.8 247.086 287.445 249.688 287.445 252.719C287.445 253.033 287.427 253.39 287.393 253.79C287.359 254.19 287.324 254.564 287.29 254.912H264.466V250.161H283.007L279.872 251.571C279.872 250.109 279.576 248.836 278.987 247.757C278.393 246.678 277.576 245.835 276.531 245.224C275.486 244.614 274.27 244.313 272.876 244.313C271.483 244.313 270.258 244.618 269.196 245.224C268.133 245.835 267.308 246.686 266.714 247.783C266.121 248.879 265.829 250.178 265.829 251.674V252.93C265.829 254.461 266.168 255.811 266.848 256.976C267.527 258.141 268.486 259.031 269.72 259.638C270.954 260.248 272.412 260.554 274.08 260.554C275.577 260.554 276.892 260.326 278.023 259.874C279.154 259.423 280.191 258.743 281.132 257.836L285.467 262.536C284.177 263.998 282.56 265.12 280.608 265.903C278.66 266.685 276.411 267.077 273.87 267.077Z" fill="white"/>
</svg>