<svg width="1827" height="365" viewBox="0 0 1827 365" fill="none" xmlns="http://www.w3.org/2000/svg">
<g clip-path="url(#clip0_16_39)">
<path d="M1826.74 298.847H1801.45V362.938H1783.38V298.847H1758.21V283.954H1826.74V298.847ZM1749.59 348.265V362.928H1688.4V283.944H1748.12V298.617H1706.57V315.76H1743.27V329.973H1706.57V348.255H1749.59V348.265ZM1674.91 298.847H1649.62V362.938H1631.57V298.847H1606.39V283.954H1674.91V298.847ZM1519.85 283.944H1538.03V335.401L1575.74 283.944H1592.9V362.928H1574.84V311.592L1537.13 362.928H1519.85V283.944ZM1473.29 364.278C1465.25 364.278 1457.96 362.528 1451.44 359.03C1444.93 355.532 1439.81 350.684 1436.09 344.477C1432.37 338.279 1430.5 331.253 1430.5 323.436C1430.5 315.61 1432.36 308.593 1436.09 302.386C1439.82 296.179 1444.93 291.331 1451.44 287.832C1457.96 284.334 1465.28 282.585 1473.41 282.585C1480.26 282.585 1486.45 283.784 1491.98 286.193C1497.51 288.592 1502.15 292.06 1505.92 296.568L1494.19 307.403C1488.84 301.236 1482.22 298.148 1474.32 298.148C1469.43 298.148 1465.06 299.217 1461.22 301.366C1457.38 303.515 1454.39 306.494 1452.24 310.342C1450.09 314.18 1449.02 318.538 1449.02 323.426C1449.02 328.314 1450.09 332.672 1452.24 336.51C1454.39 340.349 1457.38 343.327 1461.22 345.476C1465.06 347.625 1469.43 348.695 1474.32 348.695C1482.22 348.695 1488.84 345.576 1494.19 339.339L1505.92 350.164C1502.16 354.752 1497.5 358.25 1491.93 360.659C1486.35 363.078 1480.14 364.278 1473.29 364.278ZM1385.41 326.265C1390.9 326.265 1395.08 325.075 1397.94 322.707C1400.8 320.328 1402.23 316.969 1402.23 312.601C1402.23 308.163 1400.8 304.755 1397.94 302.396C1395.08 300.027 1390.9 298.837 1385.41 298.837H1370.51V326.255H1385.41V326.265ZM1386.43 283.944C1393.43 283.944 1399.52 285.104 1404.67 287.442C1409.82 289.771 1413.8 293.08 1416.58 297.368C1419.37 301.656 1420.75 306.734 1420.75 312.601C1420.75 318.388 1419.36 323.456 1416.58 327.774C1413.8 332.102 1409.82 335.411 1404.67 337.7C1399.51 339.989 1393.42 341.148 1386.43 341.148H1370.51V362.918H1352.23V283.934H1386.43V283.944ZM1335.47 348.265V362.928H1274.27V283.944H1334V298.617H1292.46V315.76H1329.15V329.973H1292.46V348.255H1335.47V348.265ZM1226.47 349.384C1235.06 349.384 1239.35 346.006 1239.35 339.229C1239.35 332.682 1235.06 329.413 1226.47 329.413H1206.38V349.384H1226.47ZM1206.38 316.669H1223.43C1227.42 316.669 1230.44 315.86 1232.47 314.24C1234.5 312.611 1235.51 310.232 1235.51 307.074C1235.51 303.985 1234.48 301.616 1232.41 299.967C1230.34 298.308 1227.34 297.488 1223.43 297.488H1206.38V316.669ZM1242.97 321.747C1247.78 323.186 1251.47 325.505 1254.03 328.744C1256.6 331.972 1257.87 335.961 1257.87 340.698C1257.87 347.695 1255.21 353.143 1249.91 357.061C1244.6 360.969 1237.02 362.928 1227.15 362.928H1188.21V283.944H1225.01C1234.2 283.944 1241.35 285.713 1246.47 289.252C1251.59 292.79 1254.14 297.828 1254.14 304.365C1254.14 308.283 1253.16 311.721 1251.2 314.69C1249.25 317.669 1246.5 320.018 1242.97 321.747ZM1093.55 283.944H1111.72V335.401L1149.44 283.944H1166.6V362.928H1148.53V311.592L1110.82 362.928H1093.55V283.944ZM1071.82 283.944V362.928H1053.53V330.553H1017.63V362.928H999.345V283.944H1017.63V315.08H1053.53V283.944H1071.82ZM988.693 283.944L955.047 346.446C951.807 352.463 947.906 357.021 943.355 360.1C938.804 363.188 933.853 364.728 928.513 364.728C924.382 364.728 920.091 363.818 915.65 362.019L920.051 348.135C923.212 349.105 925.852 349.604 927.953 349.604C930.203 349.604 932.243 349.055 934.054 347.965C935.864 346.876 937.514 345.156 939.024 342.837L939.705 341.928L908.549 283.934H928.083L949.086 326.355L970.76 283.934H988.693V283.944ZM1782.05 148.026C1767.6 148.026 1760.3 142.278 1760.15 130.763H1772.67C1772.82 136.251 1775.95 139 1782.04 139C1785.05 139 1787.35 138.31 1788.93 136.911C1790.51 135.521 1791.33 133.462 1791.41 130.753H1803.94C1803.87 136.391 1802.03 140.679 1798.4 143.618C1794.8 146.556 1789.35 148.026 1782.05 148.026ZM1745.59 153.103H1763.76V204.56L1801.48 153.103H1818.64V232.088H1800.58V180.751L1762.86 232.088H1745.59V153.103ZM1652.89 153.103H1671.07V204.56L1708.78 153.103H1725.94V232.088H1707.88V180.751L1670.17 232.088H1652.89V153.103ZM1602.98 200.262H1590.34V232.078H1572.16V153.093H1590.34V185.029H1603.43L1624.2 153.093H1643.52L1617.66 191.226L1644.3 232.078H1623.52L1602.98 200.262ZM1527.79 233.437C1519.74 233.437 1512.45 231.688 1505.94 228.189C1499.43 224.691 1494.31 219.843 1490.59 213.636C1486.87 207.439 1485 200.412 1485 192.585C1485 184.769 1486.86 177.752 1490.59 171.545C1494.32 165.338 1499.43 160.49 1505.94 156.992C1512.45 153.493 1519.78 151.744 1527.91 151.744C1534.76 151.744 1540.95 152.943 1546.48 155.352C1552.01 157.751 1556.65 161.22 1560.42 165.728L1548.68 176.563C1543.34 170.395 1536.72 167.307 1528.81 167.307C1523.93 167.307 1519.55 168.376 1515.72 170.525C1511.87 172.674 1508.89 175.653 1506.74 179.501C1504.59 183.34 1503.52 187.698 1503.52 192.585C1503.52 197.483 1504.59 201.841 1506.74 205.679C1508.89 209.518 1511.87 212.496 1515.72 214.645C1519.56 216.794 1523.93 217.864 1528.81 217.864C1536.71 217.864 1543.34 214.745 1548.68 208.508L1560.42 219.333C1556.66 223.921 1552 227.42 1546.43 229.819C1540.85 232.227 1534.64 233.437 1527.79 233.437ZM1475.86 217.424V232.088H1414.66V153.103H1474.39V167.777H1432.84V184.919H1469.54V199.132H1432.84V217.414H1475.86V217.424ZM1395.02 153.103V232.088H1376.96V203.65C1370.11 206.129 1363.75 207.379 1357.88 207.379C1347.27 207.379 1339.13 204.84 1333.49 199.762C1327.85 194.694 1325.02 187.378 1325.02 177.812V153.103H1343.09V175.783C1343.09 181.201 1344.53 185.279 1347.43 188.027C1350.33 190.766 1354.53 192.146 1360.02 192.146C1366.03 192.146 1371.69 190.976 1376.95 188.647V153.103H1395.02ZM1239.67 153.103H1257.85V204.56L1295.57 153.103H1312.73V232.088H1294.66V180.751L1256.95 232.088H1239.67V153.103ZM1228.16 167.997H1202.86V232.088H1184.8V167.997H1159.62V153.103H1228.16V167.997ZM1118.76 200.262H1106.1V232.078H1087.93V153.093H1106.1V185.029H1119.2L1139.98 153.093H1159.28L1133.43 191.226L1160.07 232.078H1139.3L1118.76 200.262ZM1040.73 195.414C1046.22 195.414 1050.4 194.225 1053.25 191.856C1056.11 189.477 1057.55 186.118 1057.55 181.75C1057.55 177.312 1056.11 173.904 1053.25 171.545C1050.4 169.176 1046.22 167.987 1040.73 167.987H1025.83V195.404H1040.73V195.414ZM1041.75 153.103C1048.75 153.103 1054.83 154.263 1059.99 156.602C1065.15 158.931 1069.12 162.239 1071.9 166.527C1074.68 170.815 1076.07 175.893 1076.07 181.76C1076.07 187.548 1074.68 192.615 1071.9 196.933C1069.12 201.261 1065.14 204.57 1059.99 206.859C1054.83 209.148 1048.75 210.307 1041.75 210.307H1025.83V232.078H1007.54V153.093H1041.75V153.103ZM965.089 201.281L952.567 171.045L940.035 201.281H965.089ZM970.85 215.155H934.164L927.162 232.078H908.419L943.645 153.093H961.708L997.045 232.078H977.851L970.85 215.155ZM1782.04 17.1748C1767.59 17.1748 1760.29 11.4174 1760.14 -0.0874221H1772.67C1772.82 5.40009 1775.94 8.14886 1782.03 8.14886C1785.04 8.14886 1787.34 7.44918 1788.92 6.05981C1790.5 4.67043 1791.33 2.61136 1791.4 -0.0974121H1803.94C1803.86 5.54004 1802.02 9.82809 1798.39 12.7668C1794.79 15.7054 1789.34 17.1748 1782.04 17.1748ZM1745.58 22.2525H1763.76V73.7092L1801.47 22.2525H1818.63V101.237H1800.57V49.9L1762.86 101.237H1745.58V22.2525ZM1651.49 22.2525H1669.67V73.7092L1707.38 22.2525H1724.54V101.237H1706.48V49.9L1668.76 101.237H1651.49V22.2525ZM1600.19 69.4211H1587.55V101.237H1569.36V22.2525H1587.55V54.188H1600.64L1621.41 22.2525H1640.73L1614.87 60.3852L1641.52 101.237H1620.73L1600.19 69.4211ZM1523.62 102.586C1515.57 102.586 1508.27 100.837 1501.76 97.3385C1495.25 93.8401 1490.13 88.9923 1486.41 82.7851C1482.68 76.5779 1480.82 69.5611 1480.82 61.7346C1480.82 53.9181 1482.68 46.9013 1486.41 40.6941C1490.13 34.4869 1495.25 29.6391 1501.76 26.1407C1508.27 22.6423 1515.6 20.8931 1523.73 20.8931C1530.58 20.8931 1536.77 22.0925 1542.3 24.5015C1547.84 26.9004 1552.48 30.3688 1556.24 34.8768L1544.5 45.7119C1539.15 39.5446 1532.54 36.456 1524.63 36.456C1519.74 36.456 1515.37 37.5256 1511.53 39.6746C1507.69 41.8236 1504.7 44.8023 1502.55 48.6505C1500.4 52.4888 1499.33 56.8468 1499.33 61.7346C1499.33 66.6224 1500.4 70.9904 1502.55 74.8187C1504.7 78.6569 1507.68 81.6456 1511.53 83.7946C1515.38 85.9436 1519.74 87.0132 1524.63 87.0132C1532.53 87.0132 1539.15 83.8846 1544.5 77.6574L1556.24 88.4825C1552.48 93.0704 1547.81 96.5688 1542.24 98.9678C1536.67 101.367 1530.47 102.586 1523.62 102.586ZM1465.09 22.2525V101.237H1446.8V68.8514H1410.9V101.237H1392.61V22.2525H1410.9V53.3884H1446.8V22.2525H1465.09ZM1348.77 70.4307L1336.23 40.1844L1323.7 70.4307H1348.77ZM1354.53 84.3144H1317.83L1310.83 101.237H1292.09L1327.3 22.2525H1345.37L1380.71 101.237H1361.52L1354.53 84.3144ZM1262.81 101.237L1262.69 53.9581L1239.44 92.8805H1231.31L1208.04 54.8577V101.227H1190.89V22.2425H1206.01L1235.6 71.3203L1264.72 22.2425H1279.85L1279.96 101.227H1262.81V101.237ZM1142.08 64.5633C1147.57 64.5633 1151.75 63.3839 1154.6 61.0149C1157.46 58.636 1158.89 55.2775 1158.89 50.9095C1158.89 46.4715 1157.46 43.063 1154.6 40.7041C1151.75 38.3252 1147.57 37.1457 1142.08 37.1457H1127.18V64.5633H1142.08ZM1143.1 22.2525C1150.1 22.2525 1156.18 23.4119 1161.33 25.7509C1166.48 28.0798 1170.46 31.3883 1173.25 35.6764C1176.03 39.9645 1177.42 45.0422 1177.42 50.9095C1177.42 56.6969 1176.03 61.7646 1173.25 66.0826C1170.46 70.4107 1166.48 73.7192 1161.33 76.0081C1156.17 78.2971 1150.09 79.4466 1143.1 79.4466H1127.18V101.227H1108.88V22.2425H1143.1V22.2525ZM1098.8 22.2525L1065.16 84.7542C1061.93 90.7715 1058.03 95.3294 1053.47 98.408C1048.92 101.497 1043.97 103.036 1038.63 103.036C1034.5 103.036 1030.21 102.126 1025.77 100.327L1030.17 86.4434C1033.33 87.413 1035.96 87.9128 1038.07 87.9128C1040.32 87.9128 1042.36 87.363 1044.17 86.2735C1045.98 85.184 1047.63 83.4648 1049.14 81.1458L1049.82 80.2362L1018.66 22.2425H1038.19L1059.2 64.6633L1080.87 22.2425H1098.8V22.2525ZM989.253 101.237L989.133 53.9581L965.879 92.8805H957.748L934.484 54.8577V101.227H917.331V22.2425H932.453L962.038 71.3203L991.164 22.2425H1006.3L1006.41 101.227H989.253V101.237Z" fill="black"/>
<path fill-rule="evenodd" clip-rule="evenodd" d="M595.964 110.992L727.767 364.747H828.025L650.074 22.1525H541.855L475.943 149.065L526.072 245.581L595.964 110.992Z" fill="#008CFA"/>
<path fill-rule="evenodd" clip-rule="evenodd" d="M306.234 318.538L282.239 364.747H181.972L256.105 222.022L306.234 318.538ZM414.032 110.992L545.826 364.747H646.083L468.142 22.1525H359.923L294.011 149.065L344.14 245.581L414.032 110.992Z" fill="#0064BE"/>
<path fill-rule="evenodd" clip-rule="evenodd" d="M232.101 110.922L363.784 364.448H463.971L487.945 318.278L437.867 221.852L413.883 268.031L286.17 22.1525H178.041L0.26001 364.448H100.428L232.101 110.922Z" fill="#008CFA"/>
</g>
<defs>
<clipPath id="clip0_16_39">
<rect width="1827" height="365" fill="white"/>
</clipPath>
</defs>
</svg>
