<svg xmlns="http://www.w3.org/2000/svg" xmlns:xlink="http://www.w3.org/1999/xlink" version="1.1" id="Слой_1" x="0px" y="0px" viewBox="0 0 1000 1000" style="enable-background:new 0 0 1000 1000;" xml:space="preserve">

<g>
	<g>
		<polygon class="st0" points="492.44,195.53 436.98,384.29 191.93,349.82 298.15,478.4 218.01,657.31 245.97,685.26 416.48,650.78     500,818.5 550.22,715.08 593.52,634.94 810.63,685.26 731.57,569.72 754.72,430.47 736.4,342.36 598.18,359.14   "/>
		<path class="st0" d="M912.09,211.64L523.64,329.13l23.67,101.35l378.15-111.36c20.22-5.96,29.75-29.09,19.59-47.56L912.09,211.64z    "/>
		<path class="st0" d="M452.69,430.47l91.08-389.97C548.61,19.81,532.9,0,511.64,0h-64.87l-93.62,400.39L452.69,430.47z"/>
		<path class="st1" d="M547.31,594.36l-95.52,364.27c-5.49,20.92,10.3,41.37,31.92,41.37h75.34l90.69-376.68L547.31,594.36z"/>
		<path class="st0" d="M547.31,594.36l368.26,104.11c21,5.94,30.55,30.25,19.22,48.89l-37.32,61.42L523.53,695.88L547.31,594.36z"/>
		<path class="st0" d="M65.2,747.36l37.32,61.42l376.83-112.74l-26.66-101.68L84.43,698.47C63.43,704.41,53.87,728.72,65.2,747.36z"/>
		<path class="st2" d="M452.69,594.36L559.05,1000h-91.99c-15.3,0-28.6-10.52-32.12-25.42L352.31,624.7L452.69,594.36z"/>
		<path class="st1" d="M87.91,211.64l388.52,117.2l-23.74,101.64L74.54,319.11c-20.22-5.96-29.75-29.09-19.59-47.56L87.91,211.64z"/>
		<path class="st3" d="M446.77,0h80.32c15.32,0,28.63,10.54,32.13,25.46l87.98,374.83l-99.88,30.18L446.77,0z"/>
		<path class="st3" d="M952.49,285.07l-40.4-73.43l-252.78,239.5c-35.32,33.47-35.78,89.58-1,123.61l239.17,234.04l45.97-75.65    c8.1-13.33,5.76-30.5-5.6-41.18L746.6,512.21l199.55-187.16C957.14,314.73,959.75,298.28,952.49,285.07z"/>
		<path class="st3" d="M87.91,211.64l-40.4,73.43c-7.27,13.21-4.66,29.66,6.34,39.98l199.29,186.92L62.11,691.95    c-11.34,10.68-13.66,27.84-5.57,41.16l45.98,75.68l239.17-234.04c34.78-34.03,34.32-90.14-1-123.61L87.91,211.64z"/>
	</g>
</g>
<g>
	<g>
		<g>
			<path class="st4" d="M309.78,483.32V369.44h21.8l48.48,80.37h-11.55l47.67-80.37h21.64l0.33,113.88h-24.73l-0.16-75.97h4.56     l-38.07,63.93h-11.88l-38.88-63.93h5.53v75.97H309.78z"/>
			<path class="st4" d="M450.17,483.32l50.76-113.88h26.03l50.92,113.88h-27.66l-41.65-100.54h10.41l-41.81,100.54H450.17z      M475.55,458.92l7-20.01h58.57l7.16,20.01H475.55z"/>
			<path class="st4" d="M637.91,485.27c-16.16,0-28.8-4.5-37.91-13.5c-9.11-9-13.67-21.85-13.67-38.56v-63.77h26.35v62.8     c0,10.85,2.22,18.66,6.67,23.43c4.45,4.77,10.68,7.16,18.71,7.16c8.02,0,14.26-2.38,18.71-7.16c4.45-4.77,6.67-12.58,6.67-23.43     v-62.8h26.03v63.77c0,16.7-4.56,29.56-13.67,38.56C666.71,480.77,654.07,485.27,637.91,485.27z"/>
		</g>
	</g>
	<path class="st5" d="M688.6,654.96H311.4c-11.6,0-21-9.4-21-21v-95.69c0-11.6,9.4-21,21-21H688.6c11.6,0,21,9.4,21,21v95.69   C709.6,645.56,700.19,654.96,688.6,654.96z"/>
	<g>
		<path class="st4" d="M357.9,620.13l-27.45-65.35h19.56l22.84,56.24h-9.72l23.69-56.24h18.22l-27.57,65.35H357.9z"/>
		<path class="st4" d="M443.41,621.1c-7.45,0-13.99-1.46-19.62-4.37c-5.63-2.92-9.98-6.9-13.06-11.96    c-3.08-5.06-4.62-10.83-4.62-17.31c0-6.56,1.52-12.37,4.56-17.43c3.04-5.06,7.19-9.03,12.45-11.9c5.26-2.87,11.21-4.31,17.85-4.31    c6.4,0,12.17,1.36,17.31,4.07c5.14,2.71,9.21,6.6,12.21,11.66c2.99,5.06,4.49,11.11,4.49,18.16c0,0.73-0.04,1.56-0.12,2.49    c-0.08,0.93-0.16,1.8-0.24,2.61h-53.08v-11.05h43.12l-7.29,3.28c0-3.4-0.69-6.36-2.06-8.87c-1.38-2.51-3.28-4.47-5.71-5.89    c-2.43-1.42-5.26-2.12-8.5-2.12c-3.24,0-6.09,0.71-8.56,2.12c-2.47,1.42-4.39,3.4-5.77,5.95c-1.38,2.55-2.06,5.57-2.06,9.05v2.92    c0,3.56,0.79,6.7,2.37,9.41c1.58,2.71,3.81,4.78,6.68,6.19c2.87,1.42,6.26,2.13,10.14,2.13c3.48,0,6.54-0.53,9.17-1.58    c2.63-1.05,5.04-2.63,7.23-4.74l10.08,10.93c-3,3.4-6.76,6.01-11.3,7.83C454.55,620.19,449.32,621.1,443.41,621.1z"/>
		<path class="st4" d="M487.63,620.13v-65.35h18.1v18.46l-2.55-5.34c1.94-4.62,5.06-8.12,9.35-10.51c4.29-2.39,9.51-3.58,15.67-3.58    v17.49c-0.81-0.08-1.54-0.14-2.19-0.18c-0.65-0.04-1.34-0.06-2.06-0.06c-5.18,0-9.37,1.48-12.57,4.43    c-3.2,2.96-4.8,7.55-4.8,13.79v30.85H487.63z"/>
		<path class="st4" d="M561.96,621.1c-5.59,0-10.95-0.67-16.09-2c-5.14-1.34-9.21-3.02-12.21-5.04l6.32-13.6    c2.99,1.86,6.54,3.38,10.63,4.55c4.09,1.17,8.12,1.76,12.09,1.76c4.37,0,7.47-0.53,9.29-1.58c1.82-1.05,2.73-2.51,2.73-4.37    c0-1.54-0.71-2.69-2.13-3.46c-1.42-0.77-3.3-1.36-5.65-1.76c-2.35-0.4-4.92-0.81-7.71-1.21c-2.79-0.4-5.61-0.95-8.44-1.64    c-2.84-0.69-5.43-1.72-7.77-3.1c-2.35-1.38-4.23-3.24-5.65-5.59c-1.42-2.35-2.13-5.38-2.13-9.11c0-4.13,1.19-7.77,3.58-10.93    c2.39-3.16,5.85-5.65,10.39-7.47c4.53-1.82,9.96-2.73,16.28-2.73c4.45,0,8.99,0.49,13.6,1.46s8.46,2.39,11.54,4.25L584.31,573    c-3.16-1.86-6.34-3.14-9.54-3.83c-3.2-0.69-6.3-1.03-9.29-1.03c-4.21,0-7.29,0.57-9.23,1.7c-1.94,1.13-2.92,2.59-2.92,4.37    c0,1.62,0.71,2.83,2.13,3.64c1.42,0.81,3.3,1.46,5.65,1.94c2.35,0.49,4.92,0.91,7.71,1.28c2.79,0.36,5.61,0.91,8.44,1.64    c2.83,0.73,5.4,1.76,7.71,3.1c2.31,1.34,4.19,3.16,5.65,5.47s2.19,5.33,2.19,9.05c0,4.05-1.21,7.63-3.64,10.75    c-2.43,3.12-5.93,5.57-10.51,7.35C574.09,620.21,568.52,621.1,561.96,621.1z"/>
		<path class="st4" d="M636.9,621.1c-7.45,0-13.99-1.46-19.62-4.37c-5.63-2.92-9.98-6.9-13.06-11.96    c-3.08-5.06-4.62-10.83-4.62-17.31c0-6.56,1.52-12.37,4.56-17.43c3.04-5.06,7.19-9.03,12.45-11.9c5.26-2.87,11.21-4.31,17.85-4.31    c6.4,0,12.17,1.36,17.31,4.07c5.14,2.71,9.21,6.6,12.21,11.66c2.99,5.06,4.49,11.11,4.49,18.16c0,0.73-0.04,1.56-0.12,2.49    c-0.08,0.93-0.16,1.8-0.24,2.61h-53.08v-11.05h43.12l-7.29,3.28c0-3.4-0.69-6.36-2.06-8.87c-1.38-2.51-3.28-4.47-5.71-5.89    c-2.43-1.42-5.26-2.12-8.5-2.12c-3.24,0-6.09,0.71-8.56,2.12c-2.47,1.42-4.39,3.4-5.77,5.95c-1.38,2.55-2.06,5.57-2.06,9.05v2.92    c0,3.56,0.79,6.7,2.37,9.41c1.58,2.71,3.81,4.78,6.68,6.19c2.87,1.42,6.26,2.13,10.14,2.13c3.48,0,6.54-0.53,9.17-1.58    c2.63-1.05,5.04-2.63,7.23-4.74l10.08,10.93c-3,3.4-6.76,6.01-11.3,7.83C648.04,620.19,642.81,621.1,636.9,621.1z"/>
	</g>
</g>
</svg>