<svg width="828" height="652" viewBox="0 0 828 652" fill="none" xmlns="http://www.w3.org/2000/svg">
<g clip-path="url(#clip0_16_32)">
<path fill-rule="evenodd" clip-rule="evenodd" d="M595.98 89.26L727.75 343.13H828L650.08 0.380005H541.88L475.97 127.35L526.1 223.91L595.98 89.26Z" fill="#008CFA"/>
<path fill-rule="evenodd" clip-rule="evenodd" d="M306.3 296.9L282.31 343.13H182.06L256.18 200.34L306.3 296.9ZM414.08 89.26L545.85 343.13H646.09L468.18 0.380005H359.98L294.07 127.35L344.19 223.91L414.08 89.26Z" fill="#0064BE"/>
<path fill-rule="evenodd" clip-rule="evenodd" d="M232.18 89.19L363.84 342.83H464.01L487.98 296.64L437.91 200.17L413.93 246.37L286.24 0.380005H178.13L0.380005 342.83H100.53L232.18 89.19Z" fill="#008CFA"/>
<path d="M800.34 422.87L707.68 595.73C697.88 614.26 685.9 628.32 671.73 637.9C657.56 647.49 642.07 652.28 625.24 652.28C612.88 652.28 599.68 649.51 585.62 643.97L600.64 597.32C609.37 599.88 616.83 601.16 623.01 601.16C629.19 601.16 634.67 599.77 639.47 597C644.26 594.23 648.68 589.86 652.73 583.9L565.82 422.86H632.6L684.68 530.86L738.68 422.86H800.34V422.87ZM472.51 556.43L443.75 484.86L415 556.43H472.51ZM491.04 603.08H396.46L378.89 646.53H314.35L413.08 422.87H475.39L574.44 646.53H508.62L491.04 603.08ZM230.64 646.53L230.32 527.99L172.81 624.49H144.69L87.18 530.55V646.53H29.03V422.87H81.11L159.71 551.96L236.4 422.87H288.48L289.12 646.53H230.64Z" fill="black"/>
</g>
<defs>
<clipPath id="clip0_16_32">
<rect width="828" height="652" fill="white"/>
</clipPath>
</defs>
</svg>
